<?xml version="1.0" encoding="utf-8"?>
<!-- Generator: Adobe Illustrator 26.2.1, SVG Export Plug-In . SVG Version: 6.00 Build 0)  -->
<svg version="1.1" id="Capa_1" xmlns="http://www.w3.org/2000/svg" xmlns:xlink="http://www.w3.org/1999/xlink" x="0px" y="0px"
	 viewBox="0 0 500 500" style="enable-background:new 0 0 500 500;" xml:space="preserve">
<style type="text/css">
	.st0{fill:#EC3237;}
</style>
<g>
	<rect y="387.13" class="st0" width="8.34" height="112.87"/>
</g>
<g>
	<rect x="18.29" y="367.97" class="st0" width="8.34" height="132.03"/>
</g>
<g>
	<rect x="36.33" y="315.24" class="st0" width="8.85" height="184.76"/>
</g>
<g>
	<rect x="54.79" y="364.92" class="st0" width="8.53" height="135.08"/>
</g>
<g>
	<rect x="72.81" y="315.24" class="st0" width="9.07" height="184.76"/>
</g>
<g>
	<rect x="91.87" y="380.6" class="st0" width="7.54" height="119.4"/>
</g>
<g>
	<rect x="110.47" y="390.42" class="st0" width="6.92" height="109.58"/>
</g>
<g>
	<rect x="128.06" y="387.13" class="st0" width="8.34" height="112.87"/>
</g>
<g>
	<rect x="146.35" y="367.97" class="st0" width="8.34" height="132.03"/>
</g>
<g>
	<rect x="164.39" y="359.79" class="st0" width="8.85" height="140.21"/>
</g>
<g>
	<rect x="182.94" y="367.97" class="st0" width="8.34" height="132.03"/>
</g>
<g>
	<rect x="200.87" y="397.53" class="st0" width="9.07" height="102.47"/>
</g>
<g>
	<rect x="218.65" y="405.96" class="st0" width="10.09" height="94.04"/>
</g>
<g>
	<rect x="238.53" y="390.42" class="st0" width="6.92" height="109.58"/>
</g>
<g>
	<rect x="256.12" y="306.28" class="st0" width="8.34" height="193.72"/>
</g>
<g>
	<rect x="274.41" y="273.39" class="st0" width="8.34" height="226.61"/>
</g>
<g>
	<rect x="292.45" y="259.34" class="st0" width="8.85" height="240.66"/>
</g>
<g>
	<rect x="310.63" y="253.32" class="st0" width="9.07" height="246.68"/>
</g>
<g>
	<rect x="328.92" y="253.32" class="st0" width="9.07" height="246.68"/>
</g>
<g>
	<rect x="347.99" y="295.06" class="st0" width="7.54" height="204.94"/>
</g>
<g>
	<rect x="366.59" y="311.92" class="st0" width="6.92" height="188.08"/>
</g>
<g>
	<rect x="384.17" y="306.28" class="st0" width="8.34" height="193.72"/>
</g>
<g>
	<rect x="402.47" y="273.39" class="st0" width="8.34" height="226.61"/>
</g>
<g>
	<rect x="420.5" y="259.34" class="st0" width="8.85" height="240.66"/>
</g>
<g>
	<rect x="438.69" y="253.32" class="st0" width="9.07" height="246.68"/>
</g>
<g>
	<rect x="456.98" y="253.32" class="st0" width="9.07" height="246.68"/>
</g>
<g>
	<rect x="476.04" y="295.06" class="st0" width="7.54" height="204.94"/>
</g>
<g>
	<rect x="494.65" y="311.92" class="st0" width="6.92" height="188.08"/>
</g>
</svg>
